<?xml version="1.0" standalone="no"?>
<!DOCTYPE svg PUBLIC "-//W3C//DTD SVG 20010904//EN"
 "http://www.w3.org/TR/2001/REC-SVG-20010904/DTD/svg10.dtd">
<svg version="1.0" xmlns="http://www.w3.org/2000/svg"
 width="96.000000pt" height="96.000000pt" viewBox="0 0 96.000000 96.000000"
 preserveAspectRatio="xMidYMid meet">
<metadata>
Created by potrace 1.11, written by Peter Selinger 2001-2013
</metadata>
<g transform="translate(0.000000,96.000000) scale(0.100000,-0.100000)"
fill="#000000" stroke="none">
<path d="M526 738 c-9 -24 -54 -154 -100 -290 -81 -238 -84 -246 -63 -251 12
-2 29 -7 38 -11 20 -9 15 -20 128 311 86 252 88 261 67 266 -11 2 -28 8 -37
11 -13 6 -20 -2 -33 -36z"/>
<path d="M167 579 l-88 -99 30 -32 c16 -18 38 -43 48 -55 10 -11 38 -42 62
-68 l43 -47 29 28 28 29 -64 67 c-65 67 -76 90 -52 105 8 4 37 34 66 66 l52
58 -30 24 c-16 14 -30 25 -32 24 -2 0 -44 -45 -92 -100z"/>
<path d="M687 653 l-26 -26 65 -71 c35 -38 64 -73 64 -76 0 -3 -29 -38 -65
-76 l-64 -71 28 -27 c33 -31 22 -38 121 74 36 40 71 79 78 86 10 10 -4 31 -70
107 -46 53 -88 97 -94 100 -6 3 -23 -6 -37 -20z"/>
</g>
</svg>
